<?xml version="1.0" standalone="no"?>
<!DOCTYPE svg PUBLIC "-//W3C//DTD SVG 20010904//EN"
 "http://www.w3.org/TR/2001/REC-SVG-20010904/DTD/svg10.dtd">
<svg version="1.0" xmlns="http://www.w3.org/2000/svg"
 width="2048.000000pt" height="2048.000000pt" viewBox="0 0 2048.000000 2048.000000"
 preserveAspectRatio="xMidYMid meet">

<g transform="translate(0.000000,2048.000000) scale(0.100000,-0.100000)"
fill="#000000" stroke="none">
<path d="M9845 20364 c-27 -2 -129 -8 -225 -14 -1016 -62 -2102 -306 -3060
-690 -268 -107 -426 -178 -725 -325 -438 -216 -755 -399 -1145 -660 -2097
-1404 -3585 -3519 -4190 -5955 -349 -1407 -389 -2918 -114 -4345 518 -2689
2116 -5054 4424 -6552 1268 -822 2711 -1349 4210 -1537 499 -63 833 -80 1409
-73 690 8 1187 59 1831 187 1762 349 3372 1153 4745 2369 169 149 659 639 806
806 1422 1608 2281 3547 2504 5645 64 610 72 1319 20 1930 -177 2065 -980
4015 -2309 5604 -351 420 -813 884 -1236 1242 -959 811 -2096 1452 -3285 1852
-787 265 -1585 426 -2468 498 -179 15 -1056 28 -1192 18z m825 -574 c1404 -62
2676 -392 3910 -1016 300 -151 798 -437 735 -421 -11 3 -81 23 -155 45 -726
215 -1512 266 -2320 151 -1759 -250 -3419 -1309 -4443 -2836 l-88 -131 -62 15
c-208 49 -462 104 -555 120 -148 25 -525 25 -662 0 -423 -78 -740 -334 -961
-776 -76 -151 -126 -305 -189 -581 -58 -250 -93 -354 -184 -545 -115 -240
-255 -434 -454 -627 -278 -270 -580 -473 -952 -641 -413 -186 -722 -291 -1230
-416 -315 -78 -417 -114 -620 -215 -269 -135 -459 -267 -640 -445 -224 -222
-364 -452 -474 -781 -230 -692 -246 -1315 -46 -1846 93 -249 149 -342 493
-827 l262 -367 82 489 c81 486 106 601 164 769 34 96 150 346 166 355 6 4 16
-13 23 -36 6 -23 32 -81 57 -129 138 -268 391 -471 738 -591 138 -47 464 -121
805 -182 74 -13 188 -35 252 -48 65 -14 118 -22 118 -20 0 3 -9 16 -20 30 -27
35 -25 43 12 43 30 0 28 2 -38 49 -38 27 -81 62 -95 77 -34 37 -413 552 -439
596 -54 93 -99 284 -84 362 l6 35 62 -51 c226 -189 521 -298 808 -298 77 0
1034 113 1045 123 2 3 -167 131 -377 287 -209 155 -387 291 -395 303 -8 12
-15 43 -15 70 0 50 28 177 39 177 3 0 69 -25 146 -56 213 -84 304 -106 470
-111 126 -4 150 -2 238 21 124 32 289 110 385 182 210 159 329 338 442 672 87
258 127 329 206 363 50 21 68 24 59 10 -3 -5 -17 -60 -31 -121 -55 -246 -23
-552 89 -840 36 -94 134 -291 393 -797 82 -161 132 -294 153 -406 6 -32 16
-131 22 -219 14 -193 5 -365 -46 -868 -19 -190 -39 -437 -45 -550 -20 -385
-34 -489 -80 -614 -44 -117 -96 -148 -310 -186 -217 -38 -700 -38 -1044 1
-119 13 -1066 109 -1077 109 -8 0 199 -248 590 -705 319 -372 653 -672 1034
-929 321 -215 672 -370 1037 -456 74 -18 162 -43 195 -55 267 -103 540 -51
745 142 132 124 230 286 358 593 33 80 93 213 132 295 356 744 949 2184 1499
3640 l227 600 139 -3 c177 -4 318 16 478 68 303 100 540 253 808 520 236 235
391 450 540 745 93 185 138 300 209 530 l46 150 279 93 280 93 139 -6 c154 -6
384 -33 551 -65 308 -59 693 -179 911 -285 366 -178 711 -489 872 -787 276
-514 407 -1072 443 -1895 19 -439 -18 -996 -97 -1443 -162 -922 -546 -1858
-1018 -2480 -308 -407 -614 -691 -1101 -1022 -772 -525 -1457 -862 -2220
-1094 -765 -232 -1466 -324 -2370 -311 -469 7 -755 30 -1195 97 -365 56 -910
176 -1275 281 -772 223 -1448 440 -2545 816 -360 124 -884 303 -1163 399 -280
96 -514 177 -520 181 -52 29 -181 141 -214 184 -688 909 -1212 1938 -1534
3014 -684 2285 -485 4753 554 6889 1124 2310 3150 4080 5582 4879 1076 354
2241 516 3355 467z m3400 -1520 c343 -15 903 -61 919 -76 2 -2 -54 -4 -125 -4
-173 0 -561 -17 -819 -36 -702 -50 -1298 -141 -1830 -279 -591 -153 -1309
-469 -1985 -873 -236 -141 -636 -412 -795 -537 -122 -97 -65 -34 170 185 947
884 1893 1440 2695 1584 177 32 277 38 710 45 513 7 706 5 1060 -9z m2234
-617 l96 -78 -372 -6 c-646 -11 -1154 -78 -1733 -228 -104 -27 -191 -48 -192
-47 -6 5 194 105 312 156 151 65 402 149 565 189 263 64 505 84 1056 89 l172
2 96 -77z m216 -347 c80 -9 161 -18 180 -22 28 -5 72 -44 250 -221 l215 -215
-70 6 c-391 31 -1007 32 -1325 2 -669 -65 -1566 -259 -2277 -495 -569 -189
-1148 -452 -1473 -670 -84 -57 -80 -56 -80 -17 0 33 7 40 98 109 520 392 1187
776 1802 1039 668 286 1303 451 1920 498 161 12 587 4 760 -14z m1694 -1768
c30 -46 53 -84 51 -86 -1 -2 -139 26 -306 62 -167 36 -323 68 -347 72 -23 4
-40 9 -38 12 11 10 177 19 379 21 l207 1 54 -82z m-6175 -1992 c29 -49 81
-145 115 -215 251 -501 340 -919 276 -1298 -120 -704 -390 -1189 -765 -1370
-184 -89 -640 -182 -1020 -208 l-90 -6 85 47 c764 422 1234 1134 1366 2069 21
154 30 533 15 690 -11 113 -41 324 -57 395 -6 24 -6 24 8 5 8 -11 38 -60 67
-109z m3797 -2079 c889 -859 1365 -1921 1455 -3249 13 -202 7 -854 -10 -1033
-25 -255 -45 -412 -77 -610 -183 -1103 -596 -2034 -1254 -2825 -132 -158 -497
-524 -660 -662 -891 -751 -2045 -1275 -3475 -1577 -994 -210 -1951 -224 -3035
-45 -665 110 -1401 311 -2095 574 -1301 492 -2621 1248 -3566 2042 -92 77
-137 122 -197 200 -8 9 50 -19 128 -63 987 -553 2227 -1095 3275 -1433 280
-90 352 -112 535 -164 872 -250 1684 -396 2469 -443 285 -17 882 -6 1131 20
562 61 1255 219 1907 436 2116 704 3498 1975 4088 3760 270 818 369 1795 265
2625 -98 784 -393 1587 -816 2220 -74 112 -138 198 -118 161 4 -9 3 -12 -4 -7
-6 4 -9 12 -7 19 6 14 -121 174 -243 307 l-87 95 123 -104 c67 -57 188 -167
268 -244z m-5885 -1744 c-12 -20 -14 -14 -5 12 4 9 9 14 11 11 3 -2 0 -13 -6
-23z m-310 -829 c-892 -2382 -1323 -3473 -1415 -3582 -70 -82 -163 -123 -281
-123 -118 0 -228 35 -440 141 -322 160 -646 384 -734 509 l-20 28 112 -23
c260 -54 551 -79 806 -70 197 7 220 13 313 89 360 295 1089 1724 1928 3779 13
32 25 56 27 54 2 -2 -131 -363 -296 -802z"/>
</g>
</svg>
