<?xml version="1.0" standalone="no"?>
<!DOCTYPE svg PUBLIC "-//W3C//DTD SVG 20010904//EN"
 "http://www.w3.org/TR/2001/REC-SVG-20010904/DTD/svg10.dtd">
<svg version="1.0" xmlns="http://www.w3.org/2000/svg"
 width="158.000000pt" height="158.000000pt" viewBox="0 0 158.000000 158.000000"
 preserveAspectRatio="xMidYMid meet">

<g transform="translate(0.000000,158.000000) scale(0.100000,-0.100000)"
fill="#000000" stroke="none">
<path d="M316 1551 c-26 -11 -56 -26 -65 -34 -9 -8 -31 -19 -50 -26 -57 -19
-96 -55 -110 -102 -7 -24 -24 -57 -37 -72 -19 -22 -24 -40 -24 -81 0 -28 6
-61 14 -72 9 -13 13 -40 12 -79 -3 -55 -1 -62 27 -87 24 -23 27 -31 17 -43
-10 -12 -10 -18 1 -32 10 -11 11 -17 2 -20 -14 -5 -2 -56 15 -59 7 -1 8 0 2 3
-18 8 -11 23 11 23 17 0 20 -5 17 -25 -3 -13 -2 -22 2 -20 4 3 16 -26 26 -63
21 -80 47 -136 81 -171 13 -14 34 -45 45 -69 19 -40 59 -72 91 -72 22 0 34
-21 42 -71 5 -37 3 -49 -11 -64 -17 -17 -17 -18 8 -40 28 -24 53 -94 43 -123
-3 -9 -43 -39 -90 -66 -47 -27 -92 -57 -101 -68 -16 -17 -15 -18 35 -18 45 0
57 4 84 31 37 36 125 95 162 109 24 9 35 30 16 30 -5 0 -12 14 -16 31 -5 22
-2 36 11 50 15 17 13 24 -8 20 -5 0 -8 4 -8 10 0 5 -4 8 -9 4 -5 -3 -12 -1
-16 5 -11 18 24 23 41 5 9 -9 19 -13 22 -10 3 3 -2 11 -11 18 -9 6 -19 30 -22
52 -5 33 -1 47 24 85 17 24 29 46 27 48 -2 1 -34 -2 -72 -9 -51 -9 -69 -9 -72
0 -2 6 -19 11 -38 11 -19 0 -51 7 -70 15 -30 12 -35 19 -32 42 2 22 10 30 36
38 33 9 40 19 22 30 -17 10 -11 23 13 28 19 4 18 4 -5 6 -16 0 -28 5 -28 10 0
6 19 9 41 8 26 -1 44 3 46 11 3 8 -7 12 -31 12 -19 0 -38 5 -41 10 -4 6 -19 9
-33 8 -23 -3 -27 1 -27 21 0 19 10 30 45 47 36 18 41 24 27 30 -10 3 -35 4
-56 0 -23 -3 -44 -1 -54 7 -16 11 -16 15 2 52 92 191 95 210 41 266 -21 23
-46 39 -59 39 -12 0 -19 4 -16 10 3 6 -1 7 -9 4 -9 -3 -16 -1 -16 6 0 6 -4 9
-8 6 -5 -3 -9 1 -9 9 0 8 4 12 8 10 4 -3 10 2 13 11 3 8 2 12 -4 9 -11 -7 -9
23 3 43 5 6 6 16 2 21 -3 5 1 16 9 24 8 8 13 17 10 20 -3 2 11 21 30 41 28 30
39 36 63 31 15 -3 22 -2 16 1 -21 9 -15 26 7 19 12 -4 26 0 36 10 14 13 19 14
25 4 6 -10 10 -9 15 5 7 17 8 17 25 -5 10 -13 19 -29 19 -35 0 -17 67 -84 84
-84 19 0 86 -68 86 -87 0 -7 6 -12 13 -11 6 2 12 -6 12 -17 0 -12 8 -21 19
-23 11 -2 26 -11 34 -19 12 -12 12 -17 -4 -36 -10 -12 -20 -23 -20 -25 -1 -2
-23 4 -48 12 -62 21 -159 21 -180 0 -21 -20 -20 -22 7 -20 12 1 30 -2 41 -7
12 -6 16 -5 12 1 -4 6 20 8 65 5 115 -7 163 -50 152 -133 -5 -35 -3 -42 8 -35
11 7 12 6 2 -6 -22 -27 -2 -155 20 -132 4 3 7 1 7 -5 0 -8 7 -9 25 -2 16 6 25
6 25 0 0 -6 3 -9 8 -9 18 3 32 -2 32 -12 0 -5 -4 -8 -8 -5 -5 3 -14 -4 -22
-14 -16 -22 -32 -17 -23 8 6 14 4 15 -9 5 -8 -7 -18 -10 -21 -6 -13 13 -7 -28
8 -50 11 -17 12 -31 5 -56 -5 -19 -5 -41 0 -54 7 -18 9 -12 9 25 1 48 13 68
28 46 15 -24 32 -82 27 -90 -3 -5 3 -24 14 -42 15 -26 17 -37 9 -46 -9 -8 -8
-10 5 -5 9 4 19 13 22 21 6 16 36 19 36 3 0 -6 -7 -8 -16 -5 -14 5 -15 4 -5
-8 8 -10 9 -16 1 -21 -5 -3 -10 -11 -10 -17 0 -6 7 -5 18 3 9 7 6 1 -7 -13
-13 -15 -28 -26 -34 -25 -5 1 -11 -3 -14 -9 -2 -6 6 -10 18 -9 23 2 99 -42 99
-57 0 -4 14 -23 31 -40 17 -18 33 -45 36 -60 3 -15 9 -28 14 -28 4 0 11 -9 14
-20 6 -19 46 -37 72 -32 6 1 17 -13 24 -33 7 -19 16 -35 19 -35 3 0 15 -7 26
-16 10 -8 13 -12 6 -9 -10 6 -11 3 -3 -11 5 -11 12 -27 15 -36 4 -14 10 -16
34 -7 29 10 29 11 25 72 -3 34 -11 75 -19 91 -8 16 -14 48 -14 71 0 62 -59
114 -96 84 -8 -6 -18 -9 -22 -5 -4 4 4 17 18 28 20 17 25 29 24 67 -1 66 -26
108 -72 122 l-39 11 21 23 c18 20 22 21 29 9 27 -48 135 -35 194 23 30 30 34
41 31 73 -2 27 0 36 10 33 17 -7 69 16 76 33 3 8 12 14 20 14 24 0 47 56 46
108 -1 26 2 61 5 78 5 24 1 37 -21 64 -34 40 -37 54 -23 102 11 34 10 41 -15
77 -18 25 -39 42 -57 46 -16 4 -33 15 -39 25 -5 9 -25 25 -45 34 -42 20 -82
11 -122 -26 -18 -17 -23 -18 -23 -6 0 26 -38 102 -62 125 -27 26 -105 62 -132
63 -11 0 -55 18 -98 40 -96 50 -204 74 -296 66 -86 -7 -84 -7 -172 -1 -60 4
-85 1 -124 -14z m-48 -449 c3 -9 -3 -10 -21 -3 -14 5 -28 7 -33 3 -4 -4 -4 -1
0 5 8 15 48 11 54 -5z m26 -8 c3 -8 2 -12 -4 -9 -6 3 -10 10 -10 16 0 14 7 11
14 -7z m16 -52 c17 -18 18 -21 3 -8 -13 10 -27 15 -35 10 -7 -4 -10 -3 -5 1 4
5 -5 15 -20 21 l-28 13 30 -6 c17 -3 41 -17 55 -31z m4 -51 c-18 -42 -62 -170
-59 -173 9 -9 12 -69 4 -74 -5 -3 -9 0 -9 6 0 6 -9 20 -20 32 -11 12 -19 27
-18 32 1 6 -3 34 -10 61 -19 82 -19 98 1 101 9 1 15 -2 11 -7 -3 -5 -10 -6
-16 -3 -7 4 -8 2 -4 -4 5 -8 13 -9 24 -3 9 4 24 6 32 3 13 -4 13 -3 2 10 -11
14 -9 16 17 14 16 -1 28 2 25 6 -3 4 -20 9 -37 9 l-32 2 35 6 c45 9 63 3 54
-18z m-164 -82 c7 -11 10 -22 8 -24 -8 -8 -48 8 -42 16 3 5 10 7 15 4 5 -4 9
-2 9 4 0 5 -6 12 -12 14 -10 4 -10 6 -1 6 7 1 17 -8 23 -20z m140 -255 c0 -8
-4 -14 -10 -14 -12 0 -31 35 -23 44 9 8 33 -14 33 -30z m220 -368 c0 -3 -4 -8
-10 -11 -5 -3 -10 -1 -10 4 0 6 5 11 10 11 6 0 10 -2 10 -4z m615 -36 c-20
-23 -29 -21 -19 4 3 9 13 16 22 16 13 0 12 -3 -3 -20z m25 -25 c-6 -8 -8 -20
-4 -26 4 -8 3 -9 -4 -5 -18 11 -14 46 4 46 13 0 14 -3 4 -15z m35 -14 c-3 -6
-11 -11 -17 -11 -6 0 -6 6 2 15 14 17 26 13 15 -4z"/>
<path d="M520 1020 c0 -5 6 -7 14 -4 9 3 17 -3 21 -15 4 -15 15 -21 36 -21 16
0 29 4 29 9 0 5 9 7 20 4 33 -9 23 7 -15 23 -39 16 -105 19 -105 4z"/>
<path d="M493 1013 c-18 -7 -16 -23 2 -23 8 0 15 7 15 15 0 8 -1 15 -2 14 -2
0 -9 -3 -15 -6z"/>
<path d="M853 640 c-1 -14 2 -38 6 -55 6 -25 8 -27 14 -11 4 10 3 24 -2 30 -5
6 -11 22 -14 36 l-4 25 0 -25z"/>
<path d="M815 550 c3 -5 13 -10 21 -10 8 0 14 5 14 10 0 6 -9 10 -21 10 -11 0
-17 -4 -14 -10z"/>
<path d="M845 390 c-3 -6 1 -7 9 -4 18 7 21 14 7 14 -6 0 -13 -4 -16 -10z"/>
<path d="M1353 25 c-18 -8 -33 -16 -33 -18 0 -7 101 -7 111 -1 12 7 -15 34
-33 34 -7 -1 -28 -7 -45 -15z"/>
</g>
</svg>
